<?xml version="1.0" standalone="no"?>
<!DOCTYPE svg PUBLIC "-//W3C//DTD SVG 20010904//EN"
 "http://www.w3.org/TR/2001/REC-SVG-20010904/DTD/svg10.dtd">
<svg version="1.0" xmlns="http://www.w3.org/2000/svg"
 width="880.000000pt" height="880.000000pt" viewBox="0 0 880.000000 880.000000"
 preserveAspectRatio="xMidYMid meet">
<metadata>
Created by potrace 1.14, written by Peter Selinger 2001-2017
</metadata>
<g transform="translate(0.000000,880.000000) scale(0.100000,-0.100000)"
fill="#000000" stroke="none">
<path d="M0 4415 l0 -3825 2868 0 2868 0 1 471 c1 326 5 475 12 482 13 13 12
27 13 -280 0 -128 -3 -236 -6 -241 -2 -4 -1 -14 4 -22 4 -7 4 -23 0 -36 -5
-12 -6 -25 -2 -28 5 -6 7 -76 2 -101 -1 -5 -1 -14 0 -20 2 -13 2 -87 0 -100
-1 -5 -1 -14 0 -20 1 -5 2 -37 3 -70 l2 -60 1518 -3 1517 -2 0 3840 0 3840
-1519 0 c-836 0 -1522 -3 -1524 -7 -3 -5 -1 -17 3 -27 3 -11 3 -37 0 -58 -4
-21 -5 -38 -1 -38 5 0 6 -69 1 -95 -2 -6 -1 -14 0 -20 1 -5 1 -28 1 -50 -2
-44 -2 -50 0 -115 0 -25 0 -49 -1 -55 -1 -5 -1 -14 0 -20 4 -21 1 -106 -5
-115 -3 -6 -3 -10 2 -10 8 0 8 -17 3 -115 -1 -22 -1 -43 0 -47 4 -19 3 -89 -2
-94 -3 -3 -2 -20 2 -38 8 -38 -2 -67 -15 -45 -5 7 -8 223 -8 481 l0 468 -2869
0 -2868 0 0 -3825z m5759 2438 c-1 -10 0 -21 1 -25 4 -18 3 -89 -2 -94 -3 -3
-3 -17 1 -32 4 -15 4 -42 0 -59 -4 -18 -4 -33 0 -33 7 0 5 -95 -3 -115 -2 -7
-2 -16 2 -19 8 -8 5 -103 -3 -116 -3 -6 -3 -10 2 -10 8 0 8 -17 3 -115 -1 -22
-1 -44 0 -50 6 -34 1 -98 -9 -108 -14 -14 -12 -57 -14 406 -2 314 0 387 11
387 7 0 12 -8 11 -17z m3 -1462 c0 -23 -4 -45 -7 -51 -3 -5 -3 -10 2 -10 8 0
8 -93 -1 -115 -2 -7 -2 -16 2 -19 8 -8 5 -103 -3 -116 -3 -6 -3 -10 2 -10 8 0
8 -17 3 -115 -1 -22 -1 -42 0 -45 8 -23 3 -81 -7 -85 -9 -3 -13 7 -14 33 -1
43 -1 585 0 592 1 2 6 -1 12 -7 6 -6 11 -30 11 -52z m-5 -995 c-3 -7 -2 -18 2
-25 4 -6 5 -32 1 -56 -4 -25 -4 -45 -1 -45 5 0 6 -70 1 -95 -2 -6 -1 -14 0
-20 4 -21 1 -106 -5 -115 -3 -6 -2 -10 4 -10 6 0 8 -7 5 -15 -4 -8 -11 -15
-18 -15 -8 0 -11 53 -9 188 1 241 1 234 14 227 6 -4 8 -13 6 -19z m5 -1016 c0
-188 -3 -222 -18 -208 -8 9 -8 394 1 408 4 6 9 9 12 6 3 -3 5 -96 5 -206z m-1
-642 c1 -18 0 -37 -1 -43 -1 -5 -2 -14 -2 -20 3 -22 4 -91 2 -100 -1 -5 -2
-14 0 -20 5 -28 4 -95 -2 -95 -4 0 -3 -13 2 -30 5 -18 5 -32 -1 -36 -5 -3 -7
-10 -3 -15 5 -9 8 -83 4 -104 -1 -5 -1 -14 0 -20 2 -13 2 -87 0 -100 -1 -5 -1
-14 0 -20 4 -23 3 -92 -2 -100 -3 -6 -2 -19 2 -30 8 -23 2 -55 -11 -55 -5 0
-9 10 -10 23 -1 28 -1 733 0 770 1 38 21 34 22 -5z"/>
</g>
</svg>
